<?xml version="1.0" ?><!DOCTYPE svg  PUBLIC '-//W3C//DTD SVG 1.1//EN'  'http://www.w3.org/Graphics/SVG/1.1/DTD/svg11.dtd'><svg enable-background="new 0 0 512 512" id="Layer_1" version="1.1" viewBox="0 0 512 512" xml:space="preserve" xmlns="http://www.w3.org/2000/svg" xmlns:xlink="http://www.w3.org/1999/xlink"><g><path d="M5.1,347c-0.1-16.1-0.2-32.2-0.2-48.3c0-34.9,0.1-69.8,0.2-104.7c24.6,0,49.2,0,73.8,0   c25.8,0,51.5,0,77.3,0c2.3,0,5.3,0.9,5.8-3c1.8,1.2,3.5,2.5,5.3,3.7c23.8,17.2,50.3,27.8,79.6,30.1c27.4,2.2,54-2,79.1-13.7   c0.8,2.9,3.1,1.6,4.9,1.8c2.6,0.2,5.3-0.3,7.1,2.1c-0.3,0.3-0.6,0.8-1,1c-27.9,20.1-46.1,46.9-56.4,79.5   c-5.3,16.9-7.4,34.4-11.3,51.5c-1.8,0-3.7-0.1-5.5-0.1C177.6,347,91.3,347,5.1,347z" fill="#FDDE37"/><path d="M5.1,83C5,58.2,5,33.4,4.8,8.6c0-2.8,0.9-4,3.7-3.7c1,0.1,2,0,3,0c163.6,0,327.1,0,490.7,0   c7.5,0,6.6-0.8,6.6,6.7c0,30.1-0.1,60.3-0.2,90.4c-29.3,0.6-58.6-1.2-87.8,1c0.2-1.1,0.5-2.3,0.7-3.4c3.3-15,1.2-29.1-7.7-41.7   c-11.1-15.7-29.5-16.5-42.3-2.1c-6.7,7.5-9.3,16.6-10.8,26.3c-68.2,0-136.4,0-204.5,0c-0.9-7.4-3.1-14.2-7-20.6   c-12.3-20.6-36.3-21.2-49.7-1.3c-4.7,7-6.6,14.8-7.9,22.9C62.8,83,33.9,83,5.1,83z" fill="#FDE441"/><path d="M5.1,347c86.3,0,172.5,0,258.8,0c1.8,0,3.7,0.1,5.5,0.1c-0.5,3-1.1,5.9-1.6,8.9c-0.3,0.5-0.5,1-0.8,1.5   c-1.8,0.1-3.6,0.4-5.4,0.4c-18.3,0-36.6-0.1-55,0.1c-12.9,0.1-25.7,0-38.7,1.7c-16.9,2.2-33.9,3.7-50.9,5.5   c-6.3,0.9-12.8,0.8-18.9,3c22.5,3.9,45,7.3,67.4,10.8c10.4,1.6,7.7-0.9,11,10c0.7,2.5,0.2,3.1-2.3,3.3c-6.8,0.4-13.6,1.1-20.4,1.7   c-7.4,0.7-14.8,1.4-22.2,2.1c14.2,2.9,28.3,5.2,42.4,6.9c4.7,0.6,6.8,2.2,7.4,7.1c0.3,3,0,3.7-2.9,3.8c-26.4,1.3-52.9,2.8-79.3,4.2   c-18,1-35.9,2-53.9,3c-1.2,0.1-2.4,0-2.8,1.8c18.8,0.7,37.5,1.5,56.2,2.2c23.1,0.9,46.3,2,69.4,2.7c13,0.4,25.9,1.5,38.9,0.5   c7,0.6,14,0.6,21.1,0c8.8,0.2,17.6,0.5,26.4,0.7c-1.3,8-2.6,16-4,24c-3.2,18.6-6.4,37.2-9.7,55.8c-16,0-32,0.1-48,0.1   c-60.8,0-121.7,0-182.5,0c-3.2,0-5.5,0.2-5.5-4.5C4.9,452.7,4.9,400.8,4.9,349C4.9,348.3,5,347.7,5.1,347z" fill="#FCD930"/><path d="M508.7,383c0.1,25.1,0.2,50.3,0.2,75.4c0,15.5,0,31,0.1,46.4c0,2.8-0.4,4.2-3.7,4.2   c-55.4-0.1-110.8-0.2-166.3-0.2c-0.4-0.3-0.8-0.5-1.2-0.8c0.9-6.3,1.8-12.6,2.8-18.9c3-12.2,4-24.8,6.5-37.1   c1.3-6.6,2.7-13.2,3.7-19.9c0.4-2.7,1.4-3.5,4-3.5c6.1,0.1,12.2-0.2,18.3-0.3c5.6,0.1,11.3,0.1,16.9,0.4   c12.2,0.5,20.1-5.5,25.1-16.1c4.4-9.4,5.9-19.5,7.4-29.6C451.2,383,480,383,508.7,383z" fill="#FCD930"/><path d="M508.7,383c-28.7,0-57.5,0-86.2,0c-0.5-5.5,0.6-11.2-2.4-16.2c-2.5-6.8-8.1-8.7-14.6-8.8   c-13.7-0.2-27.5-0.1-41.2-0.1c2-8.5,2.5-17.3,4.4-25.9c1.8-8.2,4.1-16.4,4.5-24.9c0.9-0.2,1.4-0.9,1.6-1.7   c2.4-8.6,6.8-16.2,11.6-23.5c7.8-9.1,17.3-15.7,29-18.8c7.4-1.9,15-2.1,22.6-2.2c8.2,0.5,16.3,0,24.1-2.5c7.2-2.2,10-5.8,10.3-13.4   c0.1-3-0.3-6-0.4-8.9c12.2,0,24.4,0,36.7,0c0.1,12.3,0.2,24.6,0.2,36.9c0,34.7,0,69.4,0,104.2C508.9,379,508.8,381,508.7,383z" fill="#FCDC35"/><path d="M508.7,236c-12.2,0-24.4,0-36.7,0c-0.7-3.2-1.3-6.5-2.1-9.7c-2.4-9.4-3.4-19.3-9.9-27.2   c-0.3-0.4-0.7-0.7-1-1.1c0,0,0,0,0,0c-0.5-0.5-1.1-1-1.6-1.5l0,0c-2.5-2.3-5.5-3.6-8.7-4.5c-18.3-4.9-36.5-2.5-54.7,0.6   c-20.2,3.5-39,11-56.1,22.4c-1.9-2.4-4.6-1.9-7.1-2.1c-1.7-0.1-4.1,1.1-4.9-1.8c1-0.6,2-1.1,3.1-1.7c37.8-19.9,65-48.5,74.9-91.3   c8.1-2.4,13.3-7.9,16.9-15.2c29.2-2.1,58.5-0.4,87.8-1c0.1,24.9,0.2,49.8,0.2,74.7C508.9,196.5,508.8,216.3,508.7,236z" fill="#FDE13C"/><path d="M5.1,83c28.9,0,57.7,0,86.6,0c0.1,3.5,0.1,7,0.2,10.4c0.8,15.5,6.8,22.3,22,25.6c1.3,11,5.8,20.9,11.1,30.4   c9.3,16.5,22.7,29.5,37,41.6c-0.5,3.8-3.4,3-5.8,3c-25.8,0-51.5,0-77.3,0c-24.6,0-49.2,0-73.8,0c-0.1-29.2-0.1-58.4-0.2-87.6   C4.9,98.6,5,90.8,5.1,83z" fill="#FDE23E"/><path d="M340.5,489.1c-0.9,6.3-1.8,12.6-2.8,18.9c-0.3,0.2-0.5,0.5-0.4,0.8c-10.4,0-20.9,0-31.3,0   c0.2-2.3-1.2-2.5-3-3c-16.5-4.6-32.5-10.5-46.6-20.5c-1-0.7-2.5-0.9-3.7-1.3c0.6-7.8,1.5-15.6,4.1-23c1.5,1,3.1,1.9,4.5,3   c11.6,9.4,24.6,16.1,39,20.2C313.5,487.8,326.9,489.5,340.5,489.1z" fill="#0265FC"/><path d="M252.7,483.9c1.2,0.4,2.7,0.6,3.7,1.3c14.1,10,30.1,16,46.6,20.5c1.8,0.5,3.3,0.7,3,3c-19,0-38,0-57,0   c-0.3-0.3-0.6-0.5-0.9-0.8C249.3,499.9,250.2,491.8,252.7,483.9z" fill="#0158FD"/><path d="M252.7,483.9c-2.5,7.8-3.4,16-4.6,24.1c-0.1,0.3-0.1,0.5-0.1,0.8c-2.4,0-4.8,0-7.3,0   c3.2-18.6,6.5-37.2,9.7-55.8c1.4-8,2.7-16,4-24c7-2.2,7.8-1.5,6.6,5.5c-1.5,8.8-3.6,17.5-4.2,26.4   C254.2,468.3,253.3,476.1,252.7,483.9z" fill="#0549A2"/><path d="M248,508.8c0-0.3,0.1-0.5,0.1-0.8c0.3,0.3,0.6,0.5,0.9,0.8C248.6,508.8,248.3,508.8,248,508.8z" fill="#0265FC"/><path d="M337.3,508.8c0-0.4,0.1-0.7,0.4-0.8c0.4,0.3,0.8,0.5,1.2,0.8C338.4,508.8,337.9,508.8,337.3,508.8z" fill="#FDE441"/><path d="M162,191c-14.3-12.1-27.7-25.1-37-41.6c-5.4-9.5-9.8-19.4-11.1-30.4c0,0,0.2-0.2,0.2-0.2l0.3,0   c1.2,0.1,2.3,0.1,3.5,0.2c1.6,0.3,1.7,1.8,2.3,2.9c2.7,5,5.1,10.1,8.2,14.8c36.8,55.5,104.4,82.6,169,66.6   c49.2-12.2,84-42,103.4-89.2c0.9,0,1.8,0.1,2.7,0.1c0.1,1.3,0.3,2.6,0.4,3.9c-9.9,42.8-37.1,71.4-74.9,91.3c-1,0.5-2,1.1-3.1,1.7   c-25.2,11.6-51.7,15.8-79.1,13.7c-29.3-2.3-55.8-12.9-79.6-30.1C165.5,193.5,163.8,192.3,162,191z" fill="#998825"/><path d="M338,215.1c17.1-11.5,35.9-18.9,56.1-22.4c18.1-3.1,36.4-5.5,54.7-0.6c3.2,0.9,6.2,2.1,8.7,4.5   c-5.1-1.1-10.2-3-15.3-3.3c-19.8-1.1-39.4,0-58.7,4.9c-14.7,3.7-28.5,9.5-40.5,18.9c-15.5,9.8-27.5,23.1-37.1,38.6   c-3.2,5.3-6.8,10.4-8.7,16.4c-6.1,12.8-10.5,26.1-13,40c-0.3,0.6-0.7,1.2-0.8,1.8c-2.8,15.8-5.6,31.5-8.2,47.3   c-0.6,3.6-1.8,5.2-5.7,5c-5.1-0.2-10.3,0.1-15.4,0.1c-13,0-26,0-39-0.1c-6.7,0-13.3,0-20-0.1c-24.1-0.1-48.2-0.1-72.2-0.2   c-1.9,0-4,0.5-5.8-0.8c17-1.9,34-3.3,50.9-5.5c13-1.7,25.8-1.6,38.7-1.7c18.3-0.2,36.6,0,55-0.1c1.8,0,3.6-0.2,5.4-0.4   c0.9-0.2,0.9-0.8,0.8-1.5c0.5-3,1.1-5.9,1.6-8.9c3.8-17.1,6-34.6,11.3-51.5c10.2-32.6,28.5-59.4,56.4-79.5   C337.4,215.8,337.7,215.4,338,215.1z" fill="#0549A2"/><path d="M156.2,82c68.2,0,136.4,0,204.5,0c0.1,3.7-0.1,7.3,0.2,11c0.6,8.3,2.5,16.2,9.8,21.4   c2.3,1.7,1.2,3.4,0.3,5.2c-8.9,17-21.2,31-36.8,42c-44.6,31.4-101.6,31.4-147.3,0.1c-16.6-11.3-30.3-25.4-40.2-43   c-1.5-2.6-2-4.5,0.8-6.7c3.9-3,5.9-7.5,7.4-12.2C156.7,94,155.8,88,156.2,82z" fill="#FDE23E"/><path d="M156.2,82c-0.3,6,0.5,12-1.3,17.8c-1.5,4.7-3.4,9.2-7.4,12.2c-2.9,2.2-2.3,4.1-0.8,6.7   c10,17.6,23.7,31.6,40.2,43c45.7,31.3,102.7,31.2,147.3-0.1c15.6-11,27.9-25,36.8-42c1-1.8,2.1-3.5-0.3-5.2   c-7.4-5.2-9.3-13-9.8-21.4c-0.3-3.6-0.1-7.3-0.2-11c1.5-9.6,4.2-18.8,10.8-26.3c12.8-14.4,31.2-13.6,42.3,2.1   c8.9,12.6,11.1,26.7,7.7,41.7c-0.2,1.1-0.5,2.3-0.7,3.4c-3.7,7.3-8.9,12.8-16.9,15.2c-0.1-1.3-0.3-2.6-0.4-3.9   c5.1-3.1,10.1-6.2,12.6-12.2c5.7-13.6,1.4-35.4-9.2-45.6c-9.2-8.7-21.5-8.8-30.2,0.2c-10.3,10.6-12.7,23.7-11.2,37.9   c0.5,5.2,1.7,10.1,5.5,14.1c2.4,2.5,3.9,3.2,5.1-1c1.4-4.7,2.4-9.3,2.8-14.2c0.6-7,5.8-11.7,13-11.4c7.3,0.3,11.9,5.2,12.2,12.4   c0.3,6.8-2.4,13-3.2,19.6c-19.4,47.2-54.2,77-103.4,89.2c-64.7,16-132.2-11-169-66.6c-3.1-4.7-5.5-9.8-8.2-14.8   c-0.6-1.1-0.7-2.6-2.3-2.9c-1.2-8-4.4-15.7-4.4-23.9c0-7.5,4.7-12.6,12.2-12.9c7.4-0.3,12.9,4.7,13.2,11.9c0.1,2.3,0.3,4.6,0.9,6.9   c0.8,3,1.2,8.2,3.2,8.2c3.6-0.1,5.5-4.5,6.5-7.9c5-15.9,2.6-30.8-8.6-43.3c-10.2-11.3-25.4-10.5-35.1,1.4c-9,11-10.8,23.9-9,37.6   c1.1,8.7,5.3,14.7,13.9,16.8c3.3,0.8,3.9,2.4,3.8,5.2l-0.3,0c0,0-0.2,0.2-0.2,0.2c-15.2-3.3-21.1-10.1-22-25.6   c-0.2-3.5-0.2-7-0.2-10.4c1.3-8.1,3.2-15.9,7.9-22.9c13.4-19.9,37.3-19.3,49.7,1.3C153,67.8,155.3,74.6,156.2,82z" fill="#FDFCFB"/><path d="M215,366.2c13,0,26,0,39,0.1c-0.2,8.6-0.1,17.3,2.1,25.7c8.1,30.8,27.7,50.2,58.3,58.7   c10.8,3,21.6,2.5,32.5,1.3c-2.5,12.3-3.5,24.9-6.5,37.1c-13.7,0.4-27.1-1.3-40.2-5.1c-14.4-4.1-27.3-10.8-39-20.2   c-1.4-1.1-3-2-4.5-3c0.5-8.9,2.7-17.6,4.2-26.4c1.2-7,0.4-7.7-6.6-5.5c-8.8-0.2-17.6-0.5-26.4-0.7c-0.5-1.7-0.8-3.6-1.6-5.2   C217.4,405.2,214,386.1,215,366.2z" fill="#0174FC"/><path d="M117,365.2c1.8,1.3,3.9,0.8,5.8,0.8c24.1,0.1,48.2,0.1,72.2,0.2c0.1,17.4,2.7,34.4,8.7,50.8   c1.3,3.6,3.8,7.1,3.2,11.3c-13,0.9-25.9-0.2-38.9-0.5c-23.1-0.6-46.3-1.7-69.4-2.7c-18.7-0.7-37.4-1.5-56.2-2.2   c0.4-1.8,1.6-1.7,2.8-1.8c18-1,35.9-2,53.9-3c26.4-1.4,52.9-2.9,79.3-4.2c2.9-0.1,3.2-0.8,2.9-3.8c-0.5-4.9-2.7-6.5-7.4-7.1   c-14.2-1.8-28.3-4-42.4-6.9c7.4-0.7,14.8-1.4,22.2-2.1c6.8-0.6,13.6-1.3,20.4-1.7c2.5-0.2,3-0.8,2.3-3.3c-3.2-10.9-0.6-8.4-11-10   c-22.5-3.5-44.9-6.9-67.4-10.8C104.2,366,110.7,366.1,117,365.2z" fill="#0158FD"/><path d="M207,428.3c0.5-4.2-1.9-7.7-3.2-11.3c-6.1-16.4-8.6-33.4-8.7-50.8c6.7,0,13.3,0,20,0.1   c-1,19.9,2.4,38.9,11.4,56.8c0.8,1.6,1.1,3.5,1.6,5.2C221,428.8,214,428.9,207,428.3z" fill="#0265FC"/><path d="M267.8,356c0.1,0.7,0.1,1.3-0.8,1.5C267.2,357,267.5,356.5,267.8,356z" fill="#FCDC35"/><path d="M347,452c-10.9,1.2-21.8,1.6-32.5-1.3c-30.6-8.5-50.2-27.9-58.3-58.7c-2.2-8.5-2.4-17.1-2.1-25.7   c5.1-0.1,10.3-0.4,15.4-0.1c3.9,0.2,5.1-1.4,5.7-5c2.6-15.8,5.4-31.5,8.2-47.3c0.1-0.6,0.5-1.2,0.8-1.8c2.1,0.1,3.8-0.9,5.5-2   c25.3-15.9,51.4-17.5,78.4-4.5c1.7,0.8,3.2,1.7,5.2,1.6c-0.4,8.5-2.7,16.7-4.5,24.9c-1.9,8.6-2.4,17.3-4.4,25.9   c-0.1,0.8-0.3,1.6-0.4,2.4c-1.4,6.6-1.4,6.6,5.4,6.7c9.3,0,18.6,0.1,27.8,0.1c1.7,22.8-5.2,42.3-22.3,57.8c-1,0.9-1.8,2-1.7,3.4   c-6.1,0.1-12.2,0.4-18.3,0.3c-2.7,0-3.6,0.8-4,3.5C349.7,438.8,348.2,445.4,347,452z M331.7,349c-14.3-0.9-30,11.6-29.6,29   c0.3,17.6,12.3,29.4,29.3,29.5c16.4,0.1,29-11.2,29.4-28.8C361.1,362.4,348.2,348.9,331.7,349z" fill="#0384FB"/><path d="M373,428.3c-0.1-1.5,0.7-2.5,1.7-3.4c17.1-15.5,24-35,22.3-57.8c7.7-0.1,15.4-0.2,23.1-0.2   c3,5.1,2,10.8,2.4,16.2c-1.6,10.1-3,20.2-7.4,29.6c-5,10.6-13,16.6-25.1,16.1C384.3,428.4,378.6,428.4,373,428.3z" fill="#0174FC"/><path d="M342.9,217c12-9.4,25.8-15.2,40.5-18.9c19.3-4.9,38.9-6,58.7-4.9c5.2,0.3,10.2,2.2,15.3,3.3c0,0,0,0,0,0   c-0.2,1.3,0.6,1.4,1.6,1.5c0,0,0,0,0,0c0.3,0.4,0.7,0.7,1,1.1c6.5,7.9,7.5,17.8,9.9,27.2c0.8,3.2,1.4,6.5,2.1,9.7   c0.2,3,0.6,6,0.4,8.9c-0.3,7.6-3.1,11.2-10.3,13.4c-7.9,2.4-16,2.9-24.1,2.5c0.3-2.1-1.1-3.3-2.4-4.7c-4.6-4.8-10-8.6-15.4-12.4   C396.9,227.7,371,219.2,342.9,217z" fill="#0158FD"/><path d="M342.9,217c28.1,2.2,54,10.8,77.3,26.8c5.5,3.8,10.8,7.6,15.4,12.4c1.3,1.3,2.6,2.6,2.4,4.7   c-7.6,0.2-15.2,0.3-22.6,2.2c-11.8,3.1-21.2,9.6-29,18.8c-0.6-1.8-2.4-2.2-3.8-3c-7.1-4.1-14.8-6.8-22.6-8.9   c-14-3.6-28.1-4.7-42.6-2.4c-6.9,1.1-13.3,3.8-20.3,4.4c1.9-6,5.4-11.2,8.7-16.4C315.4,240.1,327.4,226.8,342.9,217z" fill="#0265FC"/><path d="M297.1,272c6.9-0.7,13.4-3.3,20.3-4.4c14.4-2.3,28.6-1.3,42.6,2.4c7.8,2,15.5,4.8,22.6,8.9   c1.4,0.8,3.1,1.2,3.8,3c-4.9,7.3-9.2,14.9-11.6,23.5c-0.2,0.8-0.7,1.5-1.6,1.7c-1.9,0.1-3.5-0.8-5.2-1.6c-27-13-53.1-11.4-78.4,4.5   c-1.7,1.1-3.4,2.1-5.5,2C286.6,298.1,291,284.8,297.1,272z" fill="#0174FC"/><path d="M420.1,366.8c-7.7,0.1-15.4,0.2-23.1,0.2c-9.3,0-18.6-0.1-27.8-0.1c-6.8,0-6.8-0.1-5.4-6.7   c0.2-0.8,0.3-1.6,0.4-2.4c13.7,0,27.5,0,41.2,0.1C411.9,358,417.5,360,420.1,366.8z" fill="#0549A2"/><path d="M459,198c-1,0-1.8-0.2-1.6-1.5C458,197,458.5,197.5,459,198z" fill="#0549A2"/><path d="M460,199c-0.3-0.4-0.7-0.7-1-1.1C459.3,198.3,459.7,198.7,460,199z" fill="#0549A2"/><path d="M114.5,118.8c0.2-2.8-0.4-4.4-3.8-5.2c-8.6-2-12.8-8.1-13.9-16.8c-1.8-13.8,0-26.6,9-37.6   c9.7-11.9,24.9-12.7,35.1-1.4c11.3,12.5,13.6,27.4,8.6,43.3c-1.1,3.4-2.9,7.8-6.5,7.9c-2,0.1-2.4-5.2-3.2-8.2   c-0.6-2.3-0.8-4.6-0.9-6.9c-0.3-7.2-5.8-12.2-13.2-11.9c-7.5,0.3-12.2,5.4-12.2,12.9c0,8.3,3.3,15.9,4.4,23.9   C116.8,119,115.6,118.9,114.5,118.8z" fill="#474747"/><path d="M400.9,114.2c0.8-6.6,3.5-12.8,3.2-19.6c-0.3-7.2-4.9-12.1-12.2-12.4c-7.2-0.3-12.5,4.4-13,11.4   c-0.4,4.8-1.4,9.5-2.8,14.2c-1.2,4.2-2.7,3.5-5.1,1c-3.8-4-5-9-5.5-14.1c-1.5-14.1,0.9-27.3,11.2-37.9c8.8-9,21.1-9,30.2-0.2   c10.6,10.2,14.9,32,9.2,45.6c-2.5,6-7.5,9.1-12.6,12.2C402.7,114.2,401.8,114.2,400.9,114.2z" fill="#474747"/><path d="M331.7,349c16.5-0.1,29.4,13.4,29.1,29.7c-0.3,17.6-13,28.9-29.4,28.8c-17-0.1-28.9-11.9-29.3-29.5   C301.8,360.6,317.4,348.1,331.7,349z" fill="#0292FB"/></g></svg>